<?xml version="1.0" encoding="utf-8"?>
<!-- Generator: Adobe Illustrator 23.0.3, SVG Export Plug-In . SVG Version: 6.00 Build 0)  -->
<svg version="1.1" id="Calque_1" xmlns="http://www.w3.org/2000/svg" xmlns:xlink="http://www.w3.org/1999/xlink" x="0px" y="0px"
	 viewBox="0 0 515.3 515.3" style="enable-background:new 0 0 515.3 515.3;" xml:space="preserve">
<style type="text/css">
	.st0{fill:#1D2028;}
</style>
<path class="st0" d="M431.7,0H196.2v317.8H514V82.3C514,36.7,477.3,0,431.7,0L431.7,0z M122.8,0H82.3C36.7,0,0,36.7,0,82.3v40.5
	h122.8V0z M0,196.2h122.8V319H0V196.2z M392.5,514H433c45.6,0,82.3-36.7,82.3-82.3v-39.2H392.5V514z M196.2,392.5H319v122.8H196.2
	V392.5z M0,392.5V433c0,45.6,36.7,82.3,82.3,82.3h40.5V392.5H0z"/>
</svg>
